<?xml version="1.0" standalone="no"?><!DOCTYPE svg PUBLIC "-//W3C//DTD SVG 1.1//EN" "http://www.w3.org/Graphics/SVG/1.1/DTD/svg11.dtd"><svg t="1706604911269" class="icon" viewBox="0 0 1024 1024" version="1.1" xmlns="http://www.w3.org/2000/svg" p-id="1075" xmlns:xlink="http://www.w3.org/1999/xlink" width="128" height="128"><path d="M548.28125 92.234375c17.296875 0.421875 32.90625 3.796875 48.515625 6.75 36.28125 7.171875 71.296875 18.5625 105.046875 35.4375 40.921875 20.671875 78.46875 47.671875 112.21875 81.84375 37.125 37.546875 67.078125 81.84375 88.59375 133.734375 16.03125 37.96875 26.578125 78.046875 29.953125 120.65625 0.84375 7.59375 0.421875 15.609375 1.265625 23.203125 0 2.53125 0 5.0625-0.421875 7.59375-0.84375 2.953125 0 6.328125-0.421875 9.28125 0.421875 2.109375-0.421875 4.21875 0 6.328125 0 4.640625 0.421875 8.859375 0.421875 13.078125-1.265625 9.28125-0.84375 18.140625-1.6875 27.421875-3.375 34.171875-11.390625 67.078125-22.359375 98.71875-12.65625 35.015625-29.53125 66.65625-49.78125 96.609375-23.625 34.171875-51.046875 63.28125-81.84375 88.171875-33.75 27.421875-70.453125 48.515625-109.6875 64.125-31.640625 12.65625-63.703125 21.09375-96.609375 25.734375-13.078125 1.6875-26.15625 2.53125-39.234375 2.53125l-55.265625-0.421875c-25.734375-0.84375-50.625-5.90625-75.515625-12.65625-40.5-10.96875-79.3125-27.84375-116.015625-51.046875-27-16.875-51.890625-37.125-75.09375-60.75-30.796875-31.21875-56.53125-67.078125-77.203125-108.421875-22.359375-44.71875-36.703125-92.8125-41.765625-144.703125-0.84375-8.015625-0.421875-16.03125-1.265625-23.625 0-0.84375 0-2.109375 0.421875-3.375 0.84375-2.953125 0-6.328125 0.421875-9.703125-0.421875-5.90625 0.84375-12.234375-0.84375-18.140625 0.421875-3.796875 0.421875-7.171875 0.84375-10.96875 2.109375-4.21875 1.265625-8.859375 1.265625-13.078125 4.21875-51.046875 17.296875-99.140625 38.390625-143.859375 20.671875-43.875 47.671875-81.84375 80.15625-114.75 29.53125-29.953125 62.015625-54.421875 97.03125-73.828125 37.125-20.25 75.9375-35.4375 116.4375-43.453125 10.546875-2.109375 21.09375-4.21875 31.640625-4.640625 5.0625 0 11.390625 5.90625 13.5 12.234375 2.109375 7.59375-0.84375 16.03125-6.328125 20.25-5.90625 4.21875-12.234375 4.21875-16.453125-1.265625-2.953125-3.796875-5.484375-2.953125-8.859375-1.265625-14.34375 8.015625-27.84375 16.875-39.65625 29.109375-5.484375 5.90625-10.546875 11.8125-13.921875 19.40625-7.59375 16.03125-2.53125 26.578125 8.015625 35.4375 9.28125 8.015625 20.25 11.390625 30.796875 15.1875 20.25 7.171875 40.5 12.65625 61.59375 16.03125 19.40625 3.375 39.234375 3.796875 59.0625 2.109375 21.9375-1.6875 44.71875-2.53125 65.390625 10.546875 12.65625 8.015625 19.40625 20.25 21.515625 36.28125 1.265625 8.4375-4.21875 16.875-12.234375 20.671875-13.078125 6.75-26.15625 10.96875-40.078125 7.59375-1.265625-0.421875-3.375-1.6875-3.796875 0.84375-0.421875 2.53125 2.109375 2.53125 3.375 3.375 17.296875 9.28125 35.015625 14.765625 53.578125 18.5625 26.578125 5.484375 53.578125 8.015625 80.578125 7.59375 16.03125-0.421875 32.0625 1.265625 47.25 7.59375 22.78125 9.28125 29.953125 45.140625 12.234375 64.125-18.140625 19.40625-39.234375 25.3125-62.859375 18.5625-9.703125-2.953125-16.453125-9.703125-19.40625-21.515625-0.421875-2.109375-2.109375-3.796875-4.640625-4.21875-37.96875-9.703125-75.515625-19.828125-112.640625-32.0625-26.578125-8.4375-52.734375-17.296875-78.46875-28.6875-10.546875-4.640625-21.09375-8.4375-30.796875-15.1875-5.0625-3.375-10.546875-7.171875-10.125-14.34375 0.421875-6.75 6.328125-9.703125 10.96875-13.078125 6.75-4.640625 14.765625-5.484375 21.9375-9.703125 2.109375-1.265625 5.0625-2.109375 4.640625-5.90625-0.421875-3.375-2.953125-4.21875-5.484375-5.0625-13.078125-3.375-26.15625-6.328125-39.234375-10.125-21.9375-6.328125-43.453125-13.921875-63.703125-26.15625-10.96875-6.328125-21.09375-14.34375-28.6875-25.3125-7.171875-10.125-11.390625-21.515625-8.015625-35.015625 0.421875-1.265625 0-2.53125 0-3.796875-2.109375 0-3.375 0.421875-4.640625 1.265625-52.3125 28.6875-97.03125 68.34375-132.46875 122.34375-32.0625 49.359375-52.734375 104.625-57.796875 167.0625-5.90625 71.296875 7.59375 137.53125 38.8125 198.28125 27.84375 54.421875 65.8125 96.609375 111.796875 129.515625 21.09375 15.1875 44.71875 20.25 68.765625 20.25 31.640625-0.421875 60.75-10.546875 86.484375-33.328125 26.578125-23.625 41.765625-54.421875 42.609375-94.078125 0.421875-21.09375-7.171875-39.234375-17.296875-55.6875-15.1875-25.3125-35.859375-42.609375-58.21875-58.640625-37.96875-27.84375-73.40625-59.0625-105.046875-96.609375C295.15625 462.21875 297.265625 423.40625 314.5625 398.09375c8.4375-12.65625 21.515625-19.828125 34.59375-25.3125 1.6875-0.84375 3.796875-1.265625 5.484375-2.109375 4.640625-1.6875 5.90625-5.484375 2.53125-10.546875-3.375-5.484375-8.4375-7.171875-13.5-9.28125-13.078125-6.328125-25.734375-13.921875-35.4375-26.578125-12.65625-16.03125-21.09375-35.015625-25.3125-56.109375-2.109375-10.96875 2.109375-22.359375 8.4375-32.0625 1.6875-2.53125 5.0625-2.953125 7.171875-0.84375 4.21875 3.375 6.328125 8.4375 8.859375 13.078125 12.234375 26.15625 30.375 44.71875 51.46875 59.90625 17.71875 12.234375 35.4375 23.625 53.578125 34.59375 11.390625 6.75 23.203125 11.390625 35.4375 15.609375 40.078125 13.5 79.734375 28.265625 117.703125 48.9375 20.25 10.96875 40.078125 23.203125 56.53125 41.765625 8.4375 9.703125 15.609375 20.25 18.984375 33.75 2.953125 12.234375 0.421875 22.78125-8.4375 30.375-11.8125 10.96875-26.15625 13.5-40.5 16.03125-5.484375 0.84375-7.59375-0.421875-9.28125-7.171875-4.640625-18.140625-15.609375-31.640625-27-43.875-26.578125-28.265625-57.375-48.515625-91.125-62.015625-10.546875-4.21875-21.515625-6.75-33.328125-7.171875-24.046875-0.421875-28.6875 18.984375-21.515625 39.65625 7.171875 20.25 20.671875 33.75 35.015625 46.828125 24.46875 21.9375 51.46875 38.390625 77.625 56.53125 36.28125 24.46875 71.71875 49.78125 103.359375 82.265625 20.25 21.09375 38.8125 44.71875 48.9375 75.09375 14.34375 44.296875 4.640625 83.53125-21.09375 118.125-9.28125 12.65625-21.09375 21.9375-33.75 29.53125-1.265625 0.84375-3.375 0.84375-3.375 3.796875 9.28125-2.109375 17.71875-5.0625 26.15625-8.4375 59.90625-22.78125 112.640625-59.90625 156.09375-114.328125 37.125-46.40625 62.859375-100.828125 73.40625-163.6875 12.65625-72.5625 3.796875-142.171875-24.890625-208.40625-27.421875-62.859375-68.34375-111.375-118.546875-148.5-43.453125-32.0625-90.703125-52.734375-141.328125-62.859375-33.75-7.171875-68.34375-9.28125-102.515625-6.328125h-3.796875c8.015625-7.59375 15.609375-14.765625 16.453125-27 0.84375-12.234375-5.484375-20.671875-13.5-29.53125-1.265625 0.84375 46.828125 0 64.125 0.421875z" fill="#d81e06" p-id="1076"></path></svg>