<?xml version="1.0" standalone="no"?><!DOCTYPE svg PUBLIC "-//W3C//DTD SVG 1.1//EN" "http://www.w3.org/Graphics/SVG/1.1/DTD/svg11.dtd"><svg t="1706604991580" class="icon" viewBox="0 0 1024 1024" version="1.1" xmlns="http://www.w3.org/2000/svg" p-id="1137" xmlns:xlink="http://www.w3.org/1999/xlink" width="128" height="128"><path d="M63.656 517.227s19.23 16.762 28.393 42.462c9.179 25.7 40.956 37.4 40.956 37.4s-7.99-15.457-5.665-41.793c2.327-26.34 10.54-46.913 21.238-65.153 10.704-18.255 17.425 10.138 37.585 29.69 29.718 28.812 50.916 38.94 50.916 38.94s-3.738-14.022-2.98-26.052c1.274-20.352 6.42-31.033 9.77-31.249 7.787-0.494 7.837 6.706 21.58 18.154 12.161 10.14 24.134 11.314 24.134 11.314s1.203-32.012 8.652-41.447c7.447-9.431 10.174 2.86 14.491 8.908 5.275 7.388 11.548 11.315 11.548 11.315s13.93-2.88 25.555-9.327c20.678-11.456 28.837-23.974 28.837-23.974s-2.073 19.158-16.794 35.5c-14.72 16.35-38.625 23.604-38.625 23.604s0.65 23.341-11.04 28.726c-19.74 9.083-49.29-18.964-49.29-18.964s8.374 39.171-17.878 40.314c-25.76 1.124-84.57-54.5-84.57-54.5s-8.996 42.793 18.656 101.55c27.647 58.75 106.385 77.47 106.385 77.47s-1.215-15.2 12.277-35.674c13.5-20.474 34.394-27.84 56.51-31.084 22.111-3.243 44.473-9.97 61.254-23.326 16.785-13.354 36.53-26.007 85.245-31.738 48.714-5.73 92.943 53.644 92.943 53.644s-6.076-47.051-58.65-72.747c-52.587-25.698-114.554-17.552-114.554-17.552s17.026-13.342 45.965-16.91c28.928-3.564 53.689 2.419 53.689 2.419s-15.79-11.866-21.926-32.303c-6.142-20.44-3.178-41.506-3.178-41.506s33.141 59.35 86.562 73.034c53.41 13.678 97.414 32.44 133.46 57.125 36.038 24.68 59.535 63.46 59.535 63.46s4.67-34.8-28.537-78.606c-33.21-43.809-87.34-69.174-135.154-87.306-47.819-18.13-66.79-53.24-66.79-53.24s37.402 19.681 97.28 5.237c59.889-14.447 84.146-66.752 84.146-66.752s-41.057 26.033-93.747 23.643c-52.68-2.38-87.048-22.142-87.048-22.142s94.145-18.578 139.648-65.233c45.516-46.657 47-79.24 79.756-105.393 32.773-26.156 87.742-24.073 87.742-24.073s-60.307-23.268-115.655 2.028c-55.355 25.3-85.249 81-127.733 94.834-42.478 13.833-70.073-18.396-57.309-44.721 12.77-26.33 65.8-28.98 65.8-28.98s-59.072-19.144-95.965 12.098c-36.89 31.244-40.416 71.329-40.416 71.329l-37.455 6.742s5.103-30.12 26.69-58.44c21.582-28.33 43.99-35.645 75.272-84.002 31.262-48.356 19.72-88.82 19.72-88.82s-4.23 24.712-27.078 49.488c-22.851 24.784-64.784 41.456-128.603 91.111-63.837 49.652-70.888 100.675-73.84 121.55-2.952 20.867-28.293 21.659-44.498 26.581-16.194 4.927-36.336 14.266-41.251 34.285-4.904 20.019-27.707 22.265-50.486 16.741-22.775-5.527-55.07-18.798-71.264-24.848-16.189-6.06-34.812-13.366-53.58-3.978-18.77 9.396-8.05 50.99-0.871 78.075 7.196 27.085-9.76 63.062-9.76 63.062z m213.041-98.492s18.887-10.944 49.283-21.06c28.393-9.451 48.276-29.393 50.781-31.98 0.165-0.182 0.263-0.283 0.263-0.283s-0.089 0.1-0.263 0.284c-2.748 2.878-25.81 27.448-26.616 39.112-0.852 12.398 9.898 17.083 9.898 17.083s-25.337-4.848-47.427-5.685c-22.089-0.835-35.919 2.529-35.919 2.529z" fill="#d81e06" p-id="1138"></path><path d="M586.282 891.709c7.724-53.334 47.653-92.23 68.909-108.523 21.259-16.295 83.053-36.977 110.553 2.634 42.116 60.66-9.682 125.533-9.682 125.533s71.99-22.142 101.408-112.733c29.416-90.591 4.141-132.74 6.843-186.262 2.685-53.525 44.062-55.062 51.19 1.944 7.135 56.998-6.493 108.557-6.493 108.557s53.155-40.73 50.857-123.973c-2.3-83.245-50.404-133.837-107.909-175.652-57.52-41.815-9.168-37.7 31.292-15.72 54.566 29.66 70.225 76.103 70.225 76.103s11-35.333-3.428-77.845c-14.42-42.514-51.933-71.521-87.911-82.6-35.974-11.082-14.843-25.433 20.618-28.751 35.462-3.322 73.36 8.996 73.36 8.996s-49.362-43.057-116.805-43.281c-67.425-0.225-92.786 27.956-135.562 67.913-39.817 37.194-93.212 52.424-93.212 52.424s33.004 3.195 71.381-5.843c38.365-9.039 82.887-34.159 82.887-34.159s-0.662 31.449-45.749 79.477c-45.097 48.03-110.812 44.764-110.812 44.764s18.055 13.49 67.186 32.854c50.709 19.986 96.379 58.44 111.012 105.234 16.178 51.745-3.809 91.56-3.809 91.56s-29.888-48.143-93.927-90.21c-64.04-42.06-146.065-56.822-146.065-56.822s14.073 7.524 29.812 20.166c15.73 12.643 36.735 36.368 46.393 56.937 9.66 20.571 13.804 47.935-9.296 47.056-23.086-0.872-34.96-18.42-63.722-31.951-28.753-13.521-57.753-9.18-57.753-9.18s40.404 27.176 23.868 80.76c-16.54 53.58-83.758 71.523-127.462 85.515-59.714 19.108-78.76 47.144-78.76 47.144s35.104-20.042 88.006-20.757c40.461-0.55 73.434-6.55 104.068-20.151 39.01-17.323 40.835-8.165 15.135 6.79-25.69 14.957-72.664 38.103-132.749 38.103-60.084 0-249.423 110.943-249.423 110.943s211.813-75.852 309.819-56.193c0.002 0.001 146.137 45.124 145.707-10.801z m157.745-386.2c-21.939-20.962-28.508-44.967-14.683-53.61 13.851-8.648 42.85 1.327 64.81 22.285 21.933 20.962 28.509 44.962 14.66 53.613-13.835 8.646-42.855-1.33-64.787-22.289z" fill="#d81e06" p-id="1139"></path><path d="M756.686 856.716s15.909-70.292-36.707-73.282c-30.844-1.747-68.242 25.979-88.965 63.662-20.725 37.687-21.304 102.998 12.65 108.507 34.338 5.577 59.352-28.65 59.352-28.65s-44.06 10.815-45.026-30.02c-0.951-40.837 31.07-70.373 64.915-68.504 33.85 1.861 33.781 28.287 33.781 28.287z" fill="#d81e06" p-id="1140"></path></svg>