<?xml version="1.0" standalone="no"?><!DOCTYPE svg PUBLIC "-//W3C//DTD SVG 1.1//EN" "http://www.w3.org/Graphics/SVG/1.1/DTD/svg11.dtd"><svg t="1706604960319" class="icon" viewBox="0 0 1024 1024" version="1.1" xmlns="http://www.w3.org/2000/svg" p-id="1105" xmlns:xlink="http://www.w3.org/1999/xlink" width="128" height="128"><path d="M455.29368115 789.81975078c37.85720444 2.10090352 108.32008838 2.10090352 211.37443828 0 115.67336655 0 191.38862514-1.06315898 227.14484883-3.16406251-8.41720962 21.03630352-15.78315639 41.00944805-22.08671667 59.94392111-225.04394531 2.10090352-367.0067625 2.10090352-425.88752459 0-71.51252461-2.10090352-131.45729542-30.5031538-179.83269024-85.18288136-44.17351055 37.85720444-76.77756787 70.46211147-97.80197526 97.80197524l-31.55441665-66.24755858c14.71999741-10.51811314 43.11035156-33.65532017 85.18288135-69.41162111 6.3036375-6.3036375 11.56860352-11.56860352 15.77126027-15.77126025L237.60378647 452.25379884 139.80262695 452.25379884l0-56.80441407 160.90998047 0 0 321.80730468C338.56982422 761.42939663 390.0973854 785.6051979 455.29368115 789.81975078zM222.16716289 133.87004375C236.8871603 150.70361328 270.54248046 193.81396484 323.12053203 263.22558594c8.40454102 8.41720962 13.66950703 14.71999741 15.77126028 18.92265415-2.10090352 0-4.20188427 1.05049038-6.3036375 3.15139389-23.13720703 12.6317625-38.92036342 23.14987564-47.32490445 31.55441665-42.07252979-60.98259258-78.87932109-111.45881367-110.42106917-151.43043994L222.16716289 133.87004375zM648.06735611 502.65651417l47.31223584-31.55441666c52.57805156 65.20973682 106.21833516 138.82324219 160.89729022 220.84206104l-59.94392109 41.00944806c-10.51811314-16.82175065-22.08671665-36.80671406-34.69314194-59.9439211-103.06694126 6.31545639-206.12129116 15.78315639-309.17556381 28.39035416-16.83356953 2.11357212-34.70581055 6.31545639-53.6284647 12.6190939l-28.39035415-53.6284647c12.60719776-6.3036375 27.32719517-21.02363491 44.16084194-44.16084194 39.95895767-60.99441147 75.71525859-124.09057617 107.26882554-189.28764439L357.82630859 426.94218254l0-56.80441406 517.38591797 0 0 56.80441406L594.42620116 426.94218254c-33.65532017 60.99441147-75.71525859 132.50778579-126.19147968 214.52583218 23.13720703 0 65.19706822-2.10090352 126.19147968-6.31545641 65.19706822-4.20188427 110.42106914-7.35405063 135.65917969-9.4677-16.83356953-27.3390913-42.07252979-65.19706822-75.71525858-113.57246302C652.26924038 507.90888882 650.16825962 504.75749492 648.06735611 502.65651417zM408.30256367 171.6038065l422.73615235 0 0 59.94395507L408.30259766 231.54776157 408.30259766 171.60382813z" fill="#d81e06" p-id="1106"></path></svg>